<svg xmlns="http://www.w3.org/2000/svg" viewBox="0 0 639.8 346.3"><title>FV6_back</title><path d="M205,293.7a25.9,25.9,0,0,0,7.4-18.8,21.1,21.1,0,0,0-21.6-20.6h0a17.5,17.5,0,0,0-17.1,17.9,6.9,6.9,0,0,0,13.8.2v-.5a3.7,3.7,0,0,1,3.6-3.9h0a7.3,7.3,0,0,1,7.5,7.2h0a12.4,12.4,0,0,1-3.5,8.9,11.4,11.4,0,0,1-8.1,3.5H108a6.8,6.8,0,0,0-6.5,7.2,6.9,6.9,0,0,0,6.5,6.5h79A24.9,24.9,0,0,0,205,293.7Z" transform="translate(-101.5 -240.6)" style="fill:#e74c3c"/><path d="M162,251.8H115.8a6.8,6.8,0,0,0-6.5,7.2,6.9,6.9,0,0,0,6.5,6.5H162a6.9,6.9,0,0,0,1.1-13.7H162Z" transform="translate(-101.5 -240.6)" style="fill:#e74c3c"/><path d="M120.3,332.2h37a6.8,6.8,0,0,0,6.5-7.2,6.9,6.9,0,0,0-6.5-6.5h-37a6.8,6.8,0,0,0-6.5,7.2A6.8,6.8,0,0,0,120.3,332.2Z" transform="translate(-101.5 -240.6)" style="fill:#e74c3c"/><path d="M450.4,516.5a20.6,20.6,0,0,0-15.1-5.8,17.5,17.5,0,0,0-17.1,17.9h0a6.9,6.9,0,0,0,13.7.7v-1a3.9,3.9,0,0,1,3.7-3.9,7.3,7.3,0,0,1,7.5,7.2,12.4,12.4,0,0,1-3.5,8.9,11.4,11.4,0,0,1-8.1,3.5H367a6.9,6.9,0,0,0-.6,13.7h65.1a24.9,24.9,0,0,0,18-7.6,26.3,26.3,0,0,0,7.4-18.8A20.9,20.9,0,0,0,450.4,516.5Z" transform="translate(-101.5 -240.6)" style="fill:#e74c3c"/><path d="M331.8,546.1a6.9,6.9,0,1,0,4.8-2A6.7,6.7,0,0,0,331.8,546.1Z" transform="translate(-101.5 -240.6)" style="fill:#e74c3c"/><path d="M382.4,571.5H316.2a6.8,6.8,0,0,0-6.5,7.2,6.9,6.9,0,0,0,6.5,6.5h66.2a6.9,6.9,0,0,0,.6-13.7Z" transform="translate(-101.5 -240.6)" style="fill:#e74c3c"/><path d="M442.1,334.4a5.4,5.4,0,0,0-10.6,1.8c0,.1.1.3.1.4a.4.4,0,0,0,.1.3,112.3,112.3,0,0,1-22.3,98.8c-10.1,10.5-21.3,14-29,11.5a16.4,16.4,0,0,1-7.3-5.1,181.2,181.2,0,0,0,12.6-18.8,5.4,5.4,0,0,0-2.3-7.3,5.3,5.3,0,0,0-7,1.9h0a139.8,139.8,0,0,1-18.1,25c-4.7,2.4-8.8,3-12.2,1.9-5.4-1.8-8.7-7.9-10.6-13.5a381.6,381.6,0,0,0,23-55.3c10-30.3,16.2-60,17.4-83.6a112.8,112.8,0,0,0-1.3-25.3c9.3,8.4,16.4,20.7,20.5,36.3,6.5,24.7,4.9,54.2-4.7,83.1-1.5,4.6-3.3,9.3-5.2,13.7a5.4,5.4,0,0,0,9.9,4.3c2-4.8,3.9-9.6,5.5-14.6,10.2-30.9,11.9-62.6,4.9-89.3a102.6,102.6,0,0,0-7.5-20,112.7,112.7,0,0,1,28.1,39.2,5.4,5.4,0,0,0,7.2,2.5,5.4,5.4,0,0,0,2.7-6.8,123.8,123.8,0,0,0-74.8-68.6c-64.7-21.4-134.7,13.7-156.1,78.2-16.9,51.1,1.7,105.7,42.4,136.8l-.8,18.5A15.3,15.3,0,0,0,256.8,495l1.8.6-5.5,16.7-6-2a12.4,12.4,0,0,0-15.7,7.9l-2.2,6.7a12.4,12.4,0,0,0,3.2,12.9l-6.9,21.1a12.5,12.5,0,0,0,7.8,15.8h0l34.9,11.6a12.5,12.5,0,0,0,15.8-7.9h0l7-21.1a12.6,12.6,0,0,0,10.3-8.4l2.2-6.7a12.5,12.5,0,0,0-7.9-15.8h0l-6-2,5.5-16.7,1.8.6a15.2,15.2,0,0,0,16.8-5.7l10.4-15.3c51.2-.6,98.8-33.3,115.7-84.4A125.6,125.6,0,0,0,442.1,334.4ZM337.9,255.2c-6.7,6.1-14.5,16-23.3,31.3a5.4,5.4,0,0,0,9.3,5.4h0c15.2-26.4,28.1-36.4,33.7-34.6s8.6,11.3,7.5,34.7-7.1,51.3-16.8,80.7a378.1,378.1,0,0,1-23,55c-7.8,3.4-15.1,4.3-21.9,2.9a5.3,5.3,0,0,0-2.8,10.3h.6a43.6,43.6,0,0,0,16.5.2c-1.3,2.1-2.6,4.2-4,6.2-13,19.5-22.6,24.8-26.7,23.4s-8.7-11.3-7.5-34.6c.1-2.4.3-4.9.5-7.4a18.5,18.5,0,0,0,1.4,1.4,6.3,6.3,0,0,0,2,1.3,5.4,5.4,0,0,0,6.8-3.4,5.3,5.3,0,0,0-1.3-5.5,42.2,42.2,0,0,1-7-9.2,363,363,0,0,1,14.4-57.9,378.8,378.8,0,0,1,19.1-47.2,5.4,5.4,0,0,0-9.5-5l-.2.3a409.8,409.8,0,0,0-34.2,106.7c-4.9,3.3-11.2,6.3-16.6,4.5-3.4-1.1-6.3-4.1-8.7-8.9-1.9-20.2.8-42.4,8-64.2,9.5-28.9,25.9-53.6,45.9-69.5,12.4-10.1,25.4-15.9,37.8-17ZM209.5,369.5A112.3,112.3,0,0,1,311.3,252a96.3,96.3,0,0,0-17.9,11.6c-21.6,17.2-39.2,43.7-49.4,74.5a174.1,174.1,0,0,0-9.1,58.2,16.8,16.8,0,0,1-8.9-.3C218.2,393.5,211.8,385,209.5,369.5Zm7.2,33.9a24.6,24.6,0,0,0,5.9,2.8,26.1,26.1,0,0,0,13,.9,126.9,126.9,0,0,0,3.6,20.3,102.6,102.6,0,0,0,7.5,20,111.2,111.2,0,0,1-30-44Zm32.8,21.3a1.4,1.4,0,0,0-.2-.6l2.1.9c5.6,1.9,11.7,1.4,18.1-1.4-.5,4.2-.8,8.3-1,12.2a107.2,107.2,0,0,0,1.3,25.3c-9.2-8.5-16.2-20.9-20.3-36.4Zm-8.1,141.5-5-1.6a1.8,1.8,0,0,1-1.1-2.2l6.7-20,6.6,2.2Zm14.8,4.9-4.6-1.5,7.2-21.5,4.6,1.5Zm17.3,3.9a1.7,1.7,0,0,1-2.1,1.1l-5-1.7,7.2-21.5,6.6,2.2Zm18.4-38.4a1.8,1.8,0,0,1,1.1,2.2l-2.2,6.7a1.7,1.7,0,0,1-2.1,1.1l-48.4-16a1.8,1.8,0,0,1-1.1-2.2l2.2-6.7a1.7,1.7,0,0,1,2.1-1.1Zm-28.8-20.9,5.5-16.7,16,5.3L279.1,521Zm41.5-19.1a4.7,4.7,0,0,1-4.6,1.5l-40.1-13.3a4.7,4.7,0,0,1-2.8-4l.5-11.8a117.5,117.5,0,0,0,25.7,11.9h0a125,125,0,0,0,27.8,5.8Zm1.7-23.6a104.3,104.3,0,0,0,16.2-19.5c2.2-3.2,4.3-6.7,6.5-10.3,3.6,6.1,8.1,10.1,13.7,11.9l2.2.6a89.1,89.1,0,0,1-11.4,7.9,66.4,66.4,0,0,1-27.2,9.4Zm26.7,3.1c2-1,4-2,6-3.2a117.3,117.3,0,0,0,27.1-22.5,26.9,26.9,0,0,0,10.9,7,24.1,24.1,0,0,0,6.5,1.2A111.9,111.9,0,0,1,333,476.1Z" transform="translate(-101.5 -240.6)" style="fill:#e74c3c"/><g style="isolation:isolate"><path d="M480.3,280.5V270.1h28.5v10.4h-9.3v58h-9.9v-58Z" transform="translate(-101.5 -240.6)" style="fill:#e74c3c"/><path d="M531.2,338.5l-5.1-28.8h-2.6v28.8h-9.9V270.1h9.9c5.8,0,10.1,1.7,12.8,5.1s3.9,8.2,3.9,14.6a30.5,30.5,0,0,1-1.3,9.4,11.9,11.9,0,0,1-4.1,6.2l6.2,33.1Zm-.5-48.3a17.6,17.6,0,0,0-.7-5.7,8.6,8.6,0,0,0-1.9-3,5.5,5.5,0,0,0-2.4-1.2l-2.2-.2v20.3l2.2-.3a3.9,3.9,0,0,0,2.4-1.2,7.1,7.1,0,0,0,1.9-3A17.6,17.6,0,0,0,530.7,290.2Z" transform="translate(-101.5 -240.6)" style="fill:#e74c3c"/><path d="M546.7,270.1h9.8v68.4h-9.8Z" transform="translate(-101.5 -240.6)" style="fill:#e74c3c"/><path d="M563.8,270.1h9.9a23,23,0,0,1,6.3,1,14.5,14.5,0,0,1,5.5,3.4,15.2,15.2,0,0,1,4,6.3,32.8,32.8,0,0,1,0,19.6,16.6,16.6,0,0,1-4,6.3,14.5,14.5,0,0,1-5.5,3.4,19.7,19.7,0,0,1-6.3,1v27.4h-9.9Zm9.9,30.8a10,10,0,0,0,3.7-.5,4.2,4.2,0,0,0,2.3-1.6,8.2,8.2,0,0,0,1.1-3,32.3,32.3,0,0,0,.3-4.8,32.8,32.8,0,0,0-.3-4.9,9.1,9.1,0,0,0-1.1-3.3,5.2,5.2,0,0,0-2.3-1.8,9.9,9.9,0,0,0-3.7-.6Z" transform="translate(-101.5 -240.6)" style="fill:#e74c3c"/></g><g style="isolation:isolate"><path d="M484.3,392.6a33.7,33.7,0,0,1,.9-7.7,20.9,20.9,0,0,1,3-7,16.6,16.6,0,0,1,5.5-5,15.6,15.6,0,0,1,8-2c4.1,0,7.3.8,9.8,2.4a16.2,16.2,0,0,1,5.6,6.3,28.9,28.9,0,0,1,2.7,8.3,65.5,65.5,0,0,1,.6,8.6l-13.1,1.2c0-1.6-.1-3.2-.2-4.9a21,21,0,0,0-.8-4.6,9.8,9.8,0,0,0-1.7-3.4,3.2,3.2,0,0,0-2.6-1.2,3.5,3.5,0,0,0-3.6,2.5,17.6,17.6,0,0,0-1,6.6,13.6,13.6,0,0,0,.9,4.8,34.1,34.1,0,0,0,2.4,5.2c1,1.7,2.1,3.6,3.4,5.4l3.8,5.7,4.6,7.1a71.4,71.4,0,0,1,4,7.1,47.6,47.6,0,0,1,2.8,7.1,23.3,23.3,0,0,1,1.1,7.4,42.7,42.7,0,0,1-.8,8.9,21.9,21.9,0,0,1-3,7.5,14.8,14.8,0,0,1-5.7,5.1,18.7,18.7,0,0,1-9,1.9c-4.3,0-7.8-.7-10.3-2.2a15.7,15.7,0,0,1-5.9-6.1A22.9,22.9,0,0,1,483,449a79.8,79.8,0,0,1-.6-9.9l13.1-1.3c0,1.9.1,3.8.2,5.7a18.6,18.6,0,0,0,.9,5,9.1,9.1,0,0,0,1.9,3.5,4.3,4.3,0,0,0,3.4,1.4,4.5,4.5,0,0,0,4.2-2.9,19.8,19.8,0,0,0,1.2-7.4,12.5,12.5,0,0,0-1-4.8,32.6,32.6,0,0,0-2.5-5.4c-1.1-1.8-2.2-3.6-3.5-5.5l-3.8-5.8-4.6-7.1a63.6,63.6,0,0,1-3.9-7.2,52.7,52.7,0,0,1-2.7-7.2A27.6,27.6,0,0,1,484.3,392.6Z" transform="translate(-101.5 -240.6)" style="fill:#e74c3c"/><path d="M527.6,371.9h30.7V386H541v24.4h12.4v14.9H541v25.6h17.3v14H527.6Z" transform="translate(-101.5 -240.6)" style="fill:#e74c3c"/><path d="M564.1,464.9l13.7-93h16.4l13.8,93H594.9l-2.4-19H579.6l-2.5,19Zm22.7-62.7-.4-5h-.8l-.3,5-3.9,29.3h9.2Z" transform="translate(-101.5 -240.6)" style="fill:#e74c3c"/><path d="M614.2,392.6a33.7,33.7,0,0,1,.9-7.7,20.9,20.9,0,0,1,3-7,16.6,16.6,0,0,1,5.5-5,15.6,15.6,0,0,1,8-2c4.1,0,7.3.8,9.8,2.4a16.2,16.2,0,0,1,5.6,6.3,28.9,28.9,0,0,1,2.7,8.3,66.3,66.3,0,0,1,.7,8.6l-13.2,1.2a41,41,0,0,0-.2-4.9,21,21,0,0,0-.8-4.6,9.8,9.8,0,0,0-1.7-3.4,3.2,3.2,0,0,0-2.6-1.2,3.5,3.5,0,0,0-3.6,2.5,17.6,17.6,0,0,0-1,6.6,13.6,13.6,0,0,0,.9,4.8,47.4,47.4,0,0,0,2.4,5.2c1,1.7,2.2,3.6,3.4,5.4l3.8,5.7,4.6,7.1a71.4,71.4,0,0,1,4,7.1,47.6,47.6,0,0,1,2.8,7.1,23.4,23.4,0,0,1,1.2,7.4,42.6,42.6,0,0,1-.9,8.9,21.9,21.9,0,0,1-3,7.5,14.8,14.8,0,0,1-5.7,5.1,18.7,18.7,0,0,1-9,1.9c-4.3,0-7.8-.7-10.3-2.2a15.7,15.7,0,0,1-5.9-6.1,22.9,22.9,0,0,1-2.7-8.6,79.8,79.8,0,0,1-.6-9.9l13.1-1.3c0,1.9.1,3.8.2,5.7a18.6,18.6,0,0,0,.9,5,9.1,9.1,0,0,0,1.9,3.5,4.6,4.6,0,0,0,7.6-1.5,19.8,19.8,0,0,0,1.2-7.4,12.5,12.5,0,0,0-1-4.8,32.6,32.6,0,0,0-2.5-5.4c-1.1-1.8-2.2-3.6-3.5-5.5l-3.8-5.8-4.6-7.1q-2.1-3.6-3.9-7.2a52.7,52.7,0,0,1-2.7-7.2A27.6,27.6,0,0,1,614.2,392.6Z" transform="translate(-101.5 -240.6)" style="fill:#e74c3c"/><path d="M693.2,445.8a26.3,26.3,0,0,1-2.2,10.1,20,20,0,0,1-2.2,3.7,15.6,15.6,0,0,1-3.1,3.2,15.3,15.3,0,0,1-4.4,2.3,21,21,0,0,1-5.9.8,22.3,22.3,0,0,1-6-.8,14.1,14.1,0,0,1-4.4-2.3,13.4,13.4,0,0,1-3.1-3.2,19.5,19.5,0,0,1-2.1-3.7,26.3,26.3,0,0,1-2.3-10.1V391a26.7,26.7,0,0,1,2.3-10,23.2,23.2,0,0,1,2.1-3.7,11.8,11.8,0,0,1,3.1-3.2,16.6,16.6,0,0,1,4.4-2.3,18.9,18.9,0,0,1,6-.9,17.8,17.8,0,0,1,5.9.9,18.3,18.3,0,0,1,4.4,2.3,13.4,13.4,0,0,1,3.1,3.2A24,24,0,0,1,691,381a26.6,26.6,0,0,1,2.2,10ZM679.9,391a12.1,12.1,0,0,0-.5-3.4,7.6,7.6,0,0,0-1.3-2.3,3.7,3.7,0,0,0-2.7-1.1,3.4,3.4,0,0,0-2.7,1.1,7.6,7.6,0,0,0-1.3,2.3,12.1,12.1,0,0,0-.5,3.4v54.8a10.6,10.6,0,0,0,.5,3.4,7,7,0,0,0,1.3,2.4,3.3,3.3,0,0,0,2.7,1,3.6,3.6,0,0,0,2.7-1,7,7,0,0,0,1.3-2.4,10.6,10.6,0,0,0,.5-3.4Z" transform="translate(-101.5 -240.6)" style="fill:#e74c3c"/><path d="M716.4,416.5l-1.1-4.3h-.7v52.7H702.3v-93h11.9l13,48.5,1.1,4.3h.8V371.9h12.2v93H729.4Z" transform="translate(-101.5 -240.6)" style="fill:#e74c3c"/></g><g style="isolation:isolate"><path d="M500.1,568.5l-6.3-43-.3-2.9h-.6v45.9h-9.1V500.1h12l5.9,31.3.4,3.6h.2l.5-3.6,5.8-31.3h12v68.4h-9.1V522.6H511l-.4,2.9-6.3,43Z" transform="translate(-101.5 -240.6)" style="fill:#e74c3c"/><path d="M525.8,568.5l10.1-68.4H548l10.1,68.4h-9.6l-1.8-14h-9.5l-1.8,14Zm16.7-46.1-.3-3.7h-.5l-.3,3.7-2.8,21.5h6.7Z" transform="translate(-101.5 -240.6)" style="fill:#e74c3c"/><path d="M563.3,500.1h9.8a21.9,21.9,0,0,1,6.3,1,14.8,14.8,0,0,1,5.6,3.4,16.9,16.9,0,0,1,3.9,6.3,32.8,32.8,0,0,1,0,19.6,16.9,16.9,0,0,1-3.9,6.3,13.7,13.7,0,0,1-5.6,3.4,19,19,0,0,1-6.3,1.1v27.3h-9.8Zm9.8,30.8a13.8,13.8,0,0,0,3.8-.4,4.7,4.7,0,0,0,2.2-1.7,5.4,5.4,0,0,0,1.1-3,32.3,32.3,0,0,0,.3-4.8,33.8,33.8,0,0,0-.3-4.9,6.8,6.8,0,0,0-1.1-3.3,4.9,4.9,0,0,0-2.2-1.8,10.4,10.4,0,0,0-3.8-.6Z" transform="translate(-101.5 -240.6)" style="fill:#e74c3c"/></g></svg>