<svg id="Layer_1" data-name="Layer 1" xmlns="http://www.w3.org/2000/svg" viewBox="0 0 829 829"><defs><style>.cls-1{fill:#e74c3c;}.cls-2{fill:#fff;}</style></defs><title>FV3</title><circle class="cls-1" cx="414.5" cy="414.5" r="414.5"/><path class="cls-2" d="M289.38,234.28A42,42,0,0,0,301.25,204a33.83,33.83,0,0,0-34.62-33h0a28.1,28.1,0,0,0-27.38,28.72,11,11,0,0,0,22,.22h0v-.75a6.09,6.09,0,0,1,5.87-6.3h0a11.8,11.8,0,0,1,12.1,11.48h0a19.83,19.83,0,0,1-5.61,14.28,18.07,18.07,0,0,1-13.08,5.61H133.81a11,11,0,0,0,0,22H260.54A40,40,0,0,0,289.38,234.28Z"/><path class="cls-2" d="M220.44,167h-74.1a11,11,0,0,0,0,22h74.1a11,11,0,1,0,.92-22Z"/><path class="cls-2" d="M153.6,296H213a11,11,0,0,0,0-22H153.6a11,11,0,0,0,0,22Z"/><path class="cls-2" d="M683,591.56a33.56,33.56,0,0,0-24.21-9.3,28,28,0,0,0-27.39,28.59V611h0a11,11,0,1,0,22,.21h0v-.75a6.11,6.11,0,0,1,5.92-6.24,11.84,11.84,0,0,1,12.1,11.49,19.94,19.94,0,0,1-5.63,14.3,18.19,18.19,0,0,1-13.08,5.59H549.33a11,11,0,0,0-.92,22H652.73a40,40,0,0,0,28.84-12.24,42,42,0,0,0,11.85-30.18A33.58,33.58,0,0,0,683,591.56Z"/><path class="cls-2" d="M492.7,638.94a11.06,11.06,0,1,0,7.8-3.22A11.06,11.06,0,0,0,492.7,638.94Z"/><path class="cls-2" d="M573.8,679.72H467.68a11,11,0,0,0,0,22H573.8a11,11,0,1,0,.92-22h-.92Z"/><path class="cls-2" d="M669.58,299.46a8.63,8.63,0,0,0-16.85,3.7,4.07,4.07,0,0,0,.13.5A180,180,0,0,1,617,462.08c-16.28,16.89-34.11,22.48-46.44,18.4a27,27,0,0,1-11.78-8.16A261.66,261.66,0,0,0,579,442.1a8.64,8.64,0,0,0-15-8.59h0a232.72,232.72,0,0,1-29,40.21c-7.52,3.83-14.07,4.82-19.51,3-8.62-2.85-13.88-12.73-17-21.63a614.85,614.85,0,0,0,36.88-88.72c16.13-48.64,26-96.22,27.83-134a172.94,172.94,0,0,0-2.15-40.58c14.92,13.4,26.24,33.22,32.84,58.14,10.5,39.6,7.84,87-7.52,133.33-2.47,7.47-5.27,14.88-8.31,22A8.66,8.66,0,0,0,594,412h0c3.24-7.66,6.21-15.41,8.79-23.36,16.39-49.5,19.15-100.34,7.82-143.18a162.69,162.69,0,0,0-12.11-32,180.78,180.78,0,0,1,45.06,62.86,8.62,8.62,0,0,0,15.84-6.79,198.62,198.62,0,0,0-120-110C435.6,125.17,323.29,181.45,289,284.85c-27.18,82,2.77,169.49,68,219.34l-1.26,29.6A24.72,24.72,0,0,0,372,557.27l2.91,1L366.07,585l-9.57-3.18a20,20,0,0,0-25.24,12.68l-3.58,10.7a20,20,0,0,0,5.13,20.65l-11.13,33.81A20,20,0,0,0,334.24,685h0l56,18.53a20,20,0,0,0,25.28-12.69h0v-.09h0l11.2-33.84a19.89,19.89,0,0,0,16.43-13.5l3.58-10.78a20,20,0,0,0-12.65-25.29h0l-9.58-3.18,8.81-26.81,2.89,1a24.66,24.66,0,0,0,27-9.16L480,544.69c82.13-1,158.36-53.35,185.53-135.33A196.68,196.68,0,0,0,669.58,299.46Zm-167-127c-10.79,9.8-23.27,25.6-37.4,50.17a8.61,8.61,0,1,0,14.91,8.63h0c24.42-42.28,45.12-58.3,54-55.41,6.68,2.2,13.82,18.11,12,55.64-1.74,36.39-11.33,82.23-27,129.43a589.9,589.9,0,0,1-36.9,88.24c-12.5,5.38-24.3,6.93-35.1,4.6a8.62,8.62,0,0,0-4.54,16.6l.9.25a67.46,67.46,0,0,0,26.41.28c-2.13,3.45-4.25,6.76-6.4,9.9-20.91,31.2-36.23,39.7-42.83,37.48s-13.89-18.06-12.07-55.53c.19-3.83.48-7.78.83-11.82.7.75,1.41,1.48,2.2,2.2a8.61,8.61,0,0,0,12.1-12.25,69.82,69.82,0,0,1-11.18-14.69,588.16,588.16,0,0,1,23.11-92.83,608,608,0,0,1,30.64-75.76,8.66,8.66,0,1,0-15.32-8.1h0l-.27.52a629.36,629.36,0,0,0-31.44,77.9,611.54,611.54,0,0,0-23.36,93.2c-7.8,5.3-17.93,10.09-26.54,7.23-5.5-1.81-10.17-6.6-14-14.3-3.09-32.4,1.26-68,12.86-103,15.32-46.36,41.48-86,73.56-111.47,20-16.06,40.84-25.25,60.76-27.11Zm-206,183.39A180,180,0,0,1,459.81,167.47,162.79,162.79,0,0,0,431.08,186c-34.68,27.57-62.81,70-79.2,119.52a279.22,279.22,0,0,0-14.63,93.32,27.12,27.12,0,0,1-14.3-.48c-12.39-4.08-22.64-17.79-26.35-42.51Zm11.49,54.34a41.53,41.53,0,0,0,9.4,4.52,43.41,43.41,0,0,0,20.8,1.47A204.57,204.57,0,0,0,344,448.77a163.46,163.46,0,0,0,12.1,32.09A182.1,182.1,0,0,1,308,410.3Zm52.64,34.11a5.68,5.68,0,0,0-.27-1q1.68.76,3.45,1.38c9,3,18.71,2.18,29.07-2.3-.75,6.74-1.29,13.25-1.57,19.51a171.31,171.31,0,0,0,2.14,40.58c-14.94-13.4-26.23-33.28-32.82-58.17Zm-13,226.89-8-2.64a2.78,2.78,0,0,1-1.72-3.47l10.68-32,10.57,3.51Zm23.7,7.85L364,676.61l11.49-34.56,7.35,2.43Zm27.81,6.32a2.77,2.77,0,0,1-3.45,1.74l-8-2.64,11.49-34.56,10.57,3.5Zm29.43-61.6a2.73,2.73,0,0,1,1.74,3.45h0L426.87,638a2.74,2.74,0,0,1-3.45,1.72l-77.55-25.66a2.75,2.75,0,0,1-1.72-3.45l3.56-10.78a2.78,2.78,0,0,1,3.44-1.74ZM382.5,590.32l8.87-26.81L417,572l-8.81,26.81ZM449,559.68a7.4,7.4,0,0,1-7.31,2.47l-64.26-21.31a7.41,7.41,0,0,1-4.41-6.36l.81-18.9a198,198,0,0,0,41.26,19.15h0A199.08,199.08,0,0,0,459.6,544Zm2.76-37.88a169.52,169.52,0,0,0,26-31.29q5.22-7.77,10.38-16.58c5.74,9.78,13,16.22,21.94,19.15a35.72,35.72,0,0,0,3.54,1,152.91,152.91,0,0,1-18.21,12.71,105.73,105.73,0,0,1-43.62,15Zm42.91,5c3.16-1.59,6.34-3.29,9.58-5.15a187.73,187.73,0,0,0,43.47-36,43,43,0,0,0,17.58,11.18,38.7,38.7,0,0,0,10.34,1.92,181.74,181.74,0,0,1-80.89,28Z"/></svg>